<?xml version="1.0" encoding="utf-8"?>
<!-- Generator: Adobe Illustrator 16.0.0, SVG Export Plug-In . SVG Version: 6.00 Build 0)  -->
<!DOCTYPE svg PUBLIC "-//W3C//DTD SVG 1.1//EN" "http://www.w3.org/Graphics/SVG/1.1/DTD/svg11.dtd">
<svg version="1.1" id="Layer_1" xmlns="http://www.w3.org/2000/svg" xmlns:xlink="http://www.w3.org/1999/xlink" x="0px" y="0px"
	 width="400px" height="399.999px" viewBox="-0.152 -0.152 400 399.999" enable-background="new -0.152 -0.152 400 399.999"
	 xml:space="preserve">
<g id="change3_1_">
	<rect x="6.233" y="6.233" fill="#FFFFFF" width="387.23" height="387.229"/>
</g>
<g id="change2">
	<polygon fill="#D1D2D2" points="24.291,23.375 23.576,297.088 23.374,375.396 375.398,376.317 375.544,319.643 376.316,24.293 	"/>
	<g>
		<path fill="#D1D2D2" d="M388.081,12.59l-0.977,375.494l-375.491-0.978l0.978-375.492L388.081,12.59 M399.848,0.885l-11.733-0.03
			L12.621-0.125L0.885-0.152l-0.03,11.735l-0.978,375.493l-0.03,11.733l11.736,0.03l375.493,0.974l11.73,0.033l0.033-11.733
			l0.974-375.492L399.848,0.885L399.848,0.885z"/>
	</g>
</g>
<g id="change1">
	<path fill="#717273" d="M319.781,290.363c-41.357-17.453-77.202-32.167-77.202-32.167s0-18.364,0-31.237
		s21.144-26.667,21.144-79.975c0-51.248-23.825-79.46-61.601-81.601c0-0.049,0-0.149,0-0.198c-0.777,0-1.516,0.078-2.28,0.104
		c-0.784-0.025-1.516-0.104-2.304-0.104c0,0.049,0,0.149,0,0.198c-37.768,2.141-61.593,30.353-61.593,81.601
		c0,53.308,21.143,67.104,21.143,79.975c0,12.866,0,31.237,0,31.237s-35.844,14.714-77.209,32.167
		c-41.371,17.487-56.056,42.282-56.056,56.083c0,13.787,0,28.485,0,28.485h173.712h4.584H375.85c0,0,0-14.698,0-28.485
		C375.857,332.646,361.125,307.851,319.781,290.363z"/>
</g>
</svg>
